<svg width="351" height="216" viewBox="0 0 351 216" fill="none" xmlns="http://www.w3.org/2000/svg">
<path d="M138.298 10.7021L65.3245 83.6755C51.8904 97.1096 51.8904 118.89 65.3245 132.324L138.298 205.298C151.732 218.732 173.513 218.732 186.947 205.298L259.92 132.324C273.354 118.89 273.354 97.1096 259.92 83.6755L186.947 10.7021C173.513 -2.73193 151.732 -2.73192 138.298 10.7021Z" fill="url(#paint0_linear_467_3493)" fill-opacity="0.24"/>
<path d="M0.5 65C0.5 60.8579 3.85786 57.5 8 57.5H93C97.1421 57.5 100.5 60.8579 100.5 65V105C100.5 109.142 97.1421 112.5 93 112.5H8C3.85786 112.5 0.5 109.142 0.5 105V65Z" fill="white"/>
<path d="M0.5 65C0.5 60.8579 3.85786 57.5 8 57.5H93C97.1421 57.5 100.5 60.8579 100.5 65V105C100.5 109.142 97.1421 112.5 93 112.5H8C3.85786 112.5 0.5 109.142 0.5 105V65Z" stroke="#BFBFBF"/>
<path d="M16.84 88V77.878H20.718C21.838 77.864 22.972 77.864 23.784 78.564C24.414 79.11 24.666 79.852 24.666 80.51C24.666 82.4 23.042 82.848 22.552 82.988C24.078 83.128 24.19 83.996 24.372 85.312C24.526 86.502 24.61 86.992 24.68 87.272C24.792 87.72 24.876 87.832 24.988 88H22.594C22.496 87.44 22.188 84.878 22.048 84.486C21.852 83.912 21.32 83.912 20.956 83.912H19.052V88H16.84ZM18.982 79.474V82.302H20.732C20.984 82.302 21.488 82.302 21.838 82.022C21.992 81.91 22.398 81.56 22.398 80.846C22.398 80.16 22.062 79.838 21.866 79.712C21.53 79.474 21.124 79.474 20.438 79.474H18.982ZM26.3459 77.906H28.5159V84.066C28.5159 85.172 28.5999 86.558 30.7139 86.558C31.0639 86.558 32.1139 86.544 32.6739 85.676C32.8839 85.368 32.9959 84.976 32.9959 83.954V77.906H35.1099V84.22C35.1099 87.23 32.7159 88.196 30.6719 88.196C29.6639 88.196 27.8159 87.972 26.8639 86.446C26.3739 85.676 26.3459 84.892 26.3459 83.954V77.906ZM45.1104 81.182H42.8984C42.8564 80.832 42.7304 79.404 41.2604 79.404C39.6504 79.404 38.9784 81.084 38.9784 83.17C38.9784 83.772 38.9784 86.642 41.0924 86.642C42.0024 86.642 42.8704 86.068 42.9124 84.724H45.1944C45.1524 85.326 45.0964 86.264 44.2844 87.104C43.3884 88.028 42.2544 88.238 41.3304 88.238C37.8444 88.238 36.7104 85.662 36.7104 83.156C36.7104 79.95 38.5024 77.822 41.3444 77.822C43.5564 77.822 45.1104 79.166 45.1104 81.182Z" fill="black"/>
<path d="M72.9183 87.9156C72.7859 87.9158 72.6572 87.8714 72.5531 87.7896C72.5413 87.775 72.5279 87.7617 72.5133 87.7498L72.1076 87.3389L67.6631 82.8943L68.4686 82.0889L71.2511 84.8766L72.9138 86.5333L77.3583 82.0889L78.1638 82.8943L74.9306 86.1276L73.7193 87.3389L73.2341 87.8241C73.1395 87.8837 73.0301 87.9154 72.9183 87.9156Z" fill="black"/>
<path d="M113.5 65C113.5 60.8579 116.858 57.5 121 57.5H262C266.142 57.5 269.5 60.8579 269.5 65V105C269.5 109.142 266.142 112.5 262 112.5H121C116.858 112.5 113.5 109.142 113.5 105V65Z" fill="white"/>
<path d="M113.5 65C113.5 60.8579 116.858 57.5 121 57.5H262C266.142 57.5 269.5 60.8579 269.5 65V105C269.5 109.142 266.142 112.5 262 112.5H121C116.858 112.5 113.5 109.142 113.5 105V65Z" stroke="#BFBFBF"/>
<path d="M129.91 88V77.906H133.032C134.488 77.906 135.706 78.004 136.546 79.012C137.078 79.656 137.162 80.384 137.162 80.902C137.162 82.078 136.672 83.072 135.874 83.59C135.132 84.066 134.11 84.066 133.578 84.066H132.108V88H129.91ZM132.052 79.544V82.456H132.92C133.62 82.456 134.922 82.456 134.922 80.916C134.922 79.544 133.76 79.544 133.144 79.544H132.052ZM138.469 88V82.666C138.469 82.33 138.413 81.308 138.371 80.902H140.317L140.359 82.26C140.625 81.658 141.087 80.804 142.767 80.888V82.75C140.667 82.554 140.541 83.632 140.541 84.514V88H138.469ZM143.233 84.528C143.233 82.82 144.101 80.762 146.887 80.762C149.449 80.762 150.555 82.498 150.555 84.472C150.555 86.46 149.407 88.252 146.845 88.252C144.829 88.252 143.233 87.006 143.233 84.528ZM145.361 84.542C145.361 86.124 145.893 86.81 146.915 86.81C147.825 86.81 148.441 86.264 148.441 84.388C148.441 83.45 148.259 82.148 146.887 82.148C145.375 82.148 145.361 83.898 145.361 84.542ZM151.028 80.93H153.24L154.836 85.732L156.46 80.93H158.462L155.914 88H153.618L151.028 80.93ZM165.758 84.99H161.012C161.012 85.452 161.012 86.88 162.454 86.88C162.972 86.88 163.49 86.684 163.686 85.9H165.576C165.548 86.236 165.478 86.838 164.904 87.44C164.386 87.986 163.462 88.266 162.426 88.266C161.824 88.266 160.676 88.154 159.934 87.384C159.29 86.712 159.024 85.76 159.024 84.626C159.024 83.478 159.304 82.106 160.494 81.28C161.04 80.916 161.712 80.692 162.482 80.692C163.49 80.692 164.694 81.084 165.338 82.4C165.814 83.366 165.786 84.402 165.758 84.99ZM161.082 83.688H163.644C163.644 83.366 163.616 82.106 162.412 82.106C161.502 82.106 161.124 82.862 161.082 83.688ZM173.537 84.99H168.791C168.791 85.452 168.791 86.88 170.233 86.88C170.751 86.88 171.269 86.684 171.465 85.9H173.355C173.327 86.236 173.257 86.838 172.683 87.44C172.165 87.986 171.241 88.266 170.205 88.266C169.603 88.266 168.455 88.154 167.713 87.384C167.069 86.712 166.803 85.76 166.803 84.626C166.803 83.478 167.083 82.106 168.273 81.28C168.819 80.916 169.491 80.692 170.261 80.692C171.269 80.692 172.473 81.084 173.117 82.4C173.593 83.366 173.565 84.402 173.537 84.99ZM168.861 83.688H171.423C171.423 83.366 171.395 82.106 170.191 82.106C169.281 82.106 168.903 82.862 168.861 83.688ZM179.58 81.798V77.892H181.666V86.852C181.666 87.272 181.694 87.734 181.722 88H179.622L179.566 86.978C179.426 87.23 179.286 87.496 178.852 87.776C178.334 88.112 177.788 88.14 177.48 88.14C175.59 88.14 174.47 86.838 174.47 84.626C174.47 82.288 175.744 80.832 177.592 80.832C178.866 80.832 179.398 81.546 179.58 81.798ZM176.57 84.57C176.57 85.746 176.962 86.796 177.998 86.796C178.6 86.796 179.09 86.432 179.314 85.998C179.622 85.41 179.65 84.682 179.65 84.332C179.65 82.946 179.048 82.19 178.11 82.19C176.724 82.19 176.57 83.856 176.57 84.57ZM183.141 84.528C183.141 82.82 184.009 80.762 186.795 80.762C189.357 80.762 190.463 82.498 190.463 84.472C190.463 86.46 189.315 88.252 186.753 88.252C184.737 88.252 183.141 87.006 183.141 84.528ZM185.269 84.542C185.269 86.124 185.801 86.81 186.823 86.81C187.733 86.81 188.349 86.264 188.349 84.388C188.349 83.45 188.167 82.148 186.795 82.148C185.283 82.148 185.269 83.898 185.269 84.542ZM192.021 88V82.666C192.021 82.33 191.965 81.308 191.923 80.902H193.869L193.911 82.26C194.177 81.658 194.639 80.804 196.319 80.888V82.75C194.219 82.554 194.093 83.632 194.093 84.514V88H192.021ZM203.451 84.99H198.705C198.705 85.452 198.705 86.88 200.147 86.88C200.665 86.88 201.183 86.684 201.379 85.9H203.269C203.241 86.236 203.171 86.838 202.597 87.44C202.079 87.986 201.155 88.266 200.119 88.266C199.517 88.266 198.369 88.154 197.627 87.384C196.983 86.712 196.717 85.76 196.717 84.626C196.717 83.478 196.997 82.106 198.187 81.28C198.733 80.916 199.405 80.692 200.175 80.692C201.183 80.692 202.387 81.084 203.031 82.4C203.507 83.366 203.479 84.402 203.451 84.99ZM198.775 83.688H201.337C201.337 83.366 201.309 82.106 200.105 82.106C199.195 82.106 198.817 82.862 198.775 83.688ZM204.314 85.956H206.26C206.288 86.404 206.568 86.922 207.436 86.922C208.178 86.922 208.528 86.502 208.528 86.082C208.528 85.76 208.36 85.508 207.548 85.284L206.26 84.934C205.686 84.766 204.468 84.416 204.468 82.974C204.468 81.602 205.728 80.762 207.562 80.762C209.018 80.762 210.194 81.434 210.25 82.848H208.36C208.304 82.064 207.674 82.008 207.352 82.008C206.792 82.008 206.372 82.274 206.372 82.708C206.372 83.184 206.722 83.282 207.338 83.45L208.612 83.8C209.9 84.15 210.502 84.808 210.502 85.774C210.502 86.992 209.452 88.21 207.254 88.21C206.344 88.21 205.476 88.014 204.832 87.342C204.37 86.852 204.328 86.292 204.314 85.956Z" fill="black"/>
<path d="M241.918 87.9156C241.786 87.9158 241.657 87.8714 241.553 87.7896C241.541 87.775 241.528 87.7617 241.513 87.7498L241.108 87.3389L236.663 82.8943L237.469 82.0889L240.251 84.8766L241.914 86.5333L246.358 82.0889L247.164 82.8943L243.931 86.1276L242.719 87.3389L242.234 87.8241C242.14 87.8837 242.03 87.9154 241.918 87.9156Z" fill="black"/>
<path d="M0.5 133C0.5 128.858 3.85786 125.5 8 125.5H113C117.142 125.5 120.5 128.858 120.5 133V173C120.5 177.142 117.142 180.5 113 180.5H8C3.85786 180.5 0.5 177.142 0.5 173V133Z" fill="white"/>
<path d="M0.5 133C0.5 128.858 3.85786 125.5 8 125.5H113C117.142 125.5 120.5 128.858 120.5 133V173C120.5 177.142 117.142 180.5 113 180.5H8C3.85786 180.5 0.5 177.142 0.5 173V133Z" stroke="#BFBFBF"/>
<path d="M16.588 151.086C16.588 148.398 17.806 145.668 21.446 145.668C22.524 145.668 24.008 145.92 25.002 147.04C26.08 148.272 26.29 149.854 26.29 150.848C26.29 152.318 25.842 153.886 25.016 154.81C23.896 156.07 22.258 156.252 21.418 156.252C20.088 156.252 18.758 155.832 17.834 154.866C16.728 153.69 16.588 152.01 16.588 151.086ZM18.856 151.016C18.856 151.982 19.01 153.06 19.612 153.844C19.92 154.264 20.438 154.656 21.446 154.656C22.328 154.656 22.93 154.348 23.336 153.718C23.672 153.214 24.022 152.43 24.022 150.82C24.022 150.33 23.98 149.63 23.77 149.014C23.35 147.768 22.496 147.222 21.46 147.222C20.648 147.222 20.004 147.558 19.598 148.076C19.024 148.776 18.856 149.868 18.856 151.016ZM23.546 143.148L21.628 145.178H20.508L21.67 143.148H23.546ZM27.8065 156V150.666C27.8065 150.33 27.7505 149.308 27.7085 148.902H29.6545L29.6965 150.26C29.9625 149.658 30.4245 148.804 32.1045 148.888V150.75C30.0045 150.554 29.8785 151.632 29.8785 152.514V156H27.8065ZM37.6505 149.798V145.892H39.7365V154.852C39.7365 155.272 39.7645 155.734 39.7925 156H37.6925L37.6365 154.978C37.4965 155.23 37.3565 155.496 36.9225 155.776C36.4045 156.112 35.8585 156.14 35.5505 156.14C33.6605 156.14 32.5405 154.838 32.5405 152.626C32.5405 150.288 33.8145 148.832 35.6625 148.832C36.9365 148.832 37.4685 149.546 37.6505 149.798ZM34.6405 152.57C34.6405 153.746 35.0325 154.796 36.0685 154.796C36.6705 154.796 37.1605 154.432 37.3845 153.998C37.6925 153.41 37.7205 152.682 37.7205 152.332C37.7205 150.946 37.1185 150.19 36.1805 150.19C34.7945 150.19 34.6405 151.856 34.6405 152.57ZM47.945 152.99H43.199C43.199 153.452 43.199 154.88 44.641 154.88C45.159 154.88 45.677 154.684 45.873 153.9H47.763C47.735 154.236 47.665 154.838 47.091 155.44C46.573 155.986 45.649 156.266 44.613 156.266C44.011 156.266 42.863 156.154 42.121 155.384C41.477 154.712 41.211 153.76 41.211 152.626C41.211 151.478 41.491 150.106 42.681 149.28C43.227 148.916 43.899 148.692 44.669 148.692C45.677 148.692 46.881 149.084 47.525 150.4C48.001 151.366 47.973 152.402 47.945 152.99ZM43.269 151.688H45.831C45.831 151.366 45.803 150.106 44.599 150.106C43.689 150.106 43.311 150.862 43.269 151.688ZM49.3403 156V150.19C49.3403 150.162 49.3403 149.392 49.2983 148.902H51.2863L51.3423 149.966C51.5383 149.644 52.0983 148.734 53.6383 148.734C55.0243 148.734 55.6123 149.574 55.7943 150.064C55.9483 150.498 55.9903 150.862 55.9903 152.178V156H53.8763V151.604C53.8763 151.31 53.8763 151.058 53.7643 150.834C53.6103 150.526 53.2883 150.232 52.7563 150.232C52.3083 150.232 51.9023 150.442 51.6783 150.778C51.5523 150.96 51.4263 151.31 51.4263 151.856V156H49.3403ZM64.2829 152.99H59.5369C59.5369 153.452 59.5369 154.88 60.9789 154.88C61.4969 154.88 62.0149 154.684 62.2109 153.9H64.1009C64.0729 154.236 64.0029 154.838 63.4289 155.44C62.9109 155.986 61.9869 156.266 60.9509 156.266C60.3489 156.266 59.2009 156.154 58.4589 155.384C57.8149 154.712 57.5489 153.76 57.5489 152.626C57.5489 151.478 57.8289 150.106 59.0189 149.28C59.5649 148.916 60.2369 148.692 61.0069 148.692C62.0149 148.692 63.2189 149.084 63.8629 150.4C64.3389 151.366 64.3109 152.402 64.2829 152.99ZM59.6069 151.688H62.1689C62.1689 151.366 62.1409 150.106 60.9369 150.106C60.0269 150.106 59.6489 150.862 59.6069 151.688Z" fill="black"/>
<path d="M92.9183 155.916C92.7859 155.916 92.6572 155.871 92.5531 155.79C92.5413 155.775 92.5279 155.762 92.5133 155.75L92.1076 155.339L87.6631 150.894L88.4686 150.089L91.2511 152.877L92.9138 154.533L97.3583 150.089L98.1638 150.894L94.9306 154.128L93.7193 155.339L93.2341 155.824C93.1395 155.884 93.0301 155.915 92.9183 155.916Z" fill="black"/>
<path d="M133.5 133C133.5 128.858 136.858 125.5 141 125.5H234C238.142 125.5 241.5 128.858 241.5 133V173C241.5 177.142 238.142 180.5 234 180.5H141C136.858 180.5 133.5 177.142 133.5 173V133Z" fill="white"/>
<path d="M133.5 133C133.5 128.858 136.858 125.5 141 125.5H234C238.142 125.5 241.5 128.858 241.5 133V173C241.5 177.142 238.142 180.5 234 180.5H141C136.858 180.5 133.5 177.142 133.5 173V133Z" stroke="#BFBFBF"/>
<path d="M149.84 156V145.878H153.718C154.838 145.864 155.972 145.864 156.784 146.564C157.414 147.11 157.666 147.852 157.666 148.51C157.666 150.4 156.042 150.848 155.552 150.988C157.078 151.128 157.19 151.996 157.372 153.312C157.526 154.502 157.61 154.992 157.68 155.272C157.792 155.72 157.876 155.832 157.988 156H155.594C155.496 155.44 155.188 152.878 155.048 152.486C154.852 151.912 154.32 151.912 153.956 151.912H152.052V156H149.84ZM151.982 147.474V150.302H153.732C153.984 150.302 154.488 150.302 154.838 150.022C154.992 149.91 155.398 149.56 155.398 148.846C155.398 148.16 155.062 147.838 154.866 147.712C154.53 147.474 154.124 147.474 153.438 147.474H151.982ZM165.366 156H163.49C163.42 155.566 163.42 155.244 163.42 155.034C162.636 156.168 161.698 156.168 161.306 156.168C160.284 156.168 159.822 155.874 159.542 155.608C159.122 155.188 158.926 154.614 158.926 154.054C158.926 153.494 159.122 152.458 160.424 151.856C161.292 151.464 162.538 151.464 163.224 151.464C163.224 151.002 163.21 150.778 163.126 150.526C162.944 150.008 162.398 149.938 162.202 149.938C161.908 149.938 161.6 150.064 161.418 150.33C161.264 150.568 161.264 150.792 161.264 150.96H159.234C159.248 150.582 159.29 149.826 160.032 149.294C160.676 148.832 161.502 148.72 162.174 148.72C162.762 148.72 163.994 148.818 164.694 149.63C165.17 150.204 165.184 151.044 165.184 151.366L165.198 154.208C165.198 154.81 165.24 155.412 165.366 156ZM163.224 152.668C161.894 152.556 160.942 152.976 160.942 153.816C160.942 154.292 161.264 154.824 161.95 154.824C162.328 154.824 162.636 154.642 162.832 154.418C163.196 153.97 163.224 153.424 163.224 152.668ZM167.055 156V150.19C167.055 150.162 167.055 149.392 167.013 148.902H169.001L169.057 149.966C169.253 149.644 169.813 148.734 171.353 148.734C172.739 148.734 173.327 149.574 173.509 150.064C173.663 150.498 173.705 150.862 173.705 152.178V156H171.591V151.604C171.591 151.31 171.591 151.058 171.479 150.834C171.325 150.526 171.003 150.232 170.471 150.232C170.023 150.232 169.617 150.442 169.393 150.778C169.267 150.96 169.141 151.31 169.141 151.856V156H167.055ZM180.346 148.958H182.292C182.236 149.518 182.194 149.994 182.194 150.708V155.93C182.194 158.534 180.024 158.786 178.666 158.786C177.658 158.786 175.684 158.66 175.558 156.518H177.546C177.574 156.728 177.672 157.498 178.778 157.498C179.394 157.498 179.926 157.204 180.066 156.574C180.15 156.224 180.15 155.972 180.164 154.894C179.506 155.762 178.764 155.86 178.26 155.86C176.23 155.86 175.278 154.096 175.278 152.388C175.278 150.596 176.272 148.888 178.302 148.888C179.59 148.888 180.066 149.588 180.276 149.896L180.346 148.958ZM177.35 152.388C177.35 152.738 177.35 154.446 178.736 154.446C180.192 154.446 180.192 152.738 180.192 152.43C180.192 151.632 180.038 150.274 178.778 150.274C177.994 150.274 177.35 150.876 177.35 152.388ZM183.549 152.528C183.549 150.82 184.417 148.762 187.203 148.762C189.765 148.762 190.871 150.498 190.871 152.472C190.871 154.46 189.723 156.252 187.161 156.252C185.145 156.252 183.549 155.006 183.549 152.528ZM185.677 152.542C185.677 154.124 186.209 154.81 187.231 154.81C188.141 154.81 188.757 154.264 188.757 152.388C188.757 151.45 188.575 150.148 187.203 150.148C185.691 150.148 185.677 151.898 185.677 152.542Z" fill="black"/>
<path d="M213.918 155.916C213.786 155.916 213.657 155.871 213.553 155.79C213.541 155.775 213.528 155.762 213.513 155.75L213.108 155.339L208.663 150.894L209.469 150.089L212.251 152.877L213.914 154.533L218.358 150.089L219.164 150.894L215.931 154.128L214.719 155.339L214.234 155.824C214.14 155.884 214.03 155.915 213.918 155.916Z" fill="black"/>
<path d="M254.5 133C254.5 128.858 257.858 125.5 262 125.5H370C374.142 125.5 377.5 128.858 377.5 133V173C377.5 177.142 374.142 180.5 370 180.5H262C257.858 180.5 254.5 177.142 254.5 173V133Z" fill="white"/>
<path d="M254.5 133C254.5 128.858 257.858 125.5 262 125.5H370C374.142 125.5 377.5 128.858 377.5 133V173C377.5 177.142 374.142 180.5 370 180.5H262C257.858 180.5 254.5 177.142 254.5 173V133Z" stroke="#BFBFBF"/>
<path d="M271.036 156V145.878H277.812V147.53H273.206V149.938H277.518V151.59H273.206V154.32H277.966V156H271.036ZM279.511 156V150.26C279.511 149.812 279.483 149.378 279.441 148.93H281.443L281.513 149.84C281.737 149.532 282.283 148.776 283.697 148.776C285.321 148.776 285.783 149.77 285.923 150.106C286.511 148.972 287.463 148.79 288.191 148.79C289.619 148.79 290.193 149.644 290.347 149.924C290.725 150.54 290.697 151.394 290.697 152.01V156H288.611V151.842C288.611 151.086 288.499 150.246 287.421 150.246C286.175 150.246 286.147 151.408 286.147 152.458V156H284.061V151.8C284.061 151.254 284.047 150.246 282.899 150.246C281.597 150.246 281.597 151.366 281.597 151.842V156H279.511ZM292.619 148.93H294.635L294.691 149.938C295.335 148.804 296.511 148.79 296.847 148.79C298.681 148.79 299.787 150.162 299.787 152.318C299.787 154.32 298.751 156.098 296.707 156.098C295.433 156.098 294.915 155.426 294.733 155.188V158.716H292.619V148.93ZM296.175 154.74C297.155 154.74 297.687 153.802 297.687 152.402C297.687 151.562 297.477 150.12 296.259 150.12C295.587 150.12 294.635 150.624 294.635 152.528C294.635 152.948 294.649 154.74 296.175 154.74ZM301.248 156V150.666C301.248 150.33 301.192 149.308 301.15 148.902H303.096L303.138 150.26C303.404 149.658 303.866 148.804 305.546 148.888V150.75C303.446 150.554 303.32 151.632 303.32 152.514V156H301.248ZM312.677 152.99H307.931C307.931 153.452 307.931 154.88 309.373 154.88C309.891 154.88 310.409 154.684 310.605 153.9H312.495C312.467 154.236 312.397 154.838 311.823 155.44C311.305 155.986 310.381 156.266 309.345 156.266C308.743 156.266 307.595 156.154 306.853 155.384C306.209 154.712 305.943 153.76 305.943 152.626C305.943 151.478 306.223 150.106 307.413 149.28C307.959 148.916 308.631 148.692 309.401 148.692C310.409 148.692 311.613 149.084 312.257 150.4C312.733 151.366 312.705 152.402 312.677 152.99ZM308.001 151.688H310.563C310.563 151.366 310.535 150.106 309.331 150.106C308.421 150.106 308.043 150.862 308.001 151.688ZM313.541 153.956H315.487C315.515 154.404 315.795 154.922 316.663 154.922C317.405 154.922 317.755 154.502 317.755 154.082C317.755 153.76 317.587 153.508 316.775 153.284L315.487 152.934C314.913 152.766 313.695 152.416 313.695 150.974C313.695 149.602 314.955 148.762 316.789 148.762C318.245 148.762 319.421 149.434 319.477 150.848H317.587C317.531 150.064 316.901 150.008 316.579 150.008C316.019 150.008 315.599 150.274 315.599 150.708C315.599 151.184 315.949 151.282 316.565 151.45L317.839 151.8C319.127 152.15 319.729 152.808 319.729 153.774C319.729 154.992 318.679 156.21 316.481 156.21C315.571 156.21 314.703 156.014 314.059 155.342C313.597 154.852 313.555 154.292 313.541 153.956ZM327.163 156H325.287C325.217 155.566 325.217 155.244 325.217 155.034C324.433 156.168 323.495 156.168 323.103 156.168C322.081 156.168 321.619 155.874 321.339 155.608C320.919 155.188 320.723 154.614 320.723 154.054C320.723 153.494 320.919 152.458 322.221 151.856C323.089 151.464 324.335 151.464 325.021 151.464C325.021 151.002 325.007 150.778 324.923 150.526C324.741 150.008 324.195 149.938 323.999 149.938C323.705 149.938 323.397 150.064 323.215 150.33C323.061 150.568 323.061 150.792 323.061 150.96H321.031C321.045 150.582 321.087 149.826 321.829 149.294C322.473 148.832 323.299 148.72 323.971 148.72C324.559 148.72 325.791 148.818 326.491 149.63C326.967 150.204 326.981 151.044 326.981 151.366L326.995 154.208C326.995 154.81 327.037 155.412 327.163 156ZM325.021 152.668C323.691 152.556 322.739 152.976 322.739 153.816C322.739 154.292 323.061 154.824 323.747 154.824C324.125 154.824 324.433 154.642 324.629 154.418C324.993 153.97 325.021 153.424 325.021 152.668Z" fill="black"/>
<path d="M349.918 155.916C349.786 155.916 349.657 155.871 349.553 155.79C349.541 155.775 349.528 155.762 349.513 155.75L349.107 155.339L344.663 150.894L345.468 150.089L348.251 152.877L349.914 154.533L354.358 150.089L355.164 150.894L351.93 154.128L350.719 155.339L350.234 155.824C350.139 155.884 350.03 155.915 349.918 155.916Z" fill="black"/>
<defs>
<linearGradient id="paint0_linear_467_3493" x1="-100" y1="-76" x2="328" y2="330" gradientUnits="userSpaceOnUse">
<stop stop-color="#339900"/>
<stop offset="1" stop-color="#CFE7C3"/>
</linearGradient>
</defs>
</svg>